<svg version="1.1" viewBox="0.0 0.0 960.0 540.0" fill="none" stroke="none" stroke-linecap="square" stroke-miterlimit="10" xmlns:xlink="http://www.w3.org/1999/xlink" xmlns="http://www.w3.org/2000/svg"><clipPath id="g79ae98dee3_0_19.0"><path d="m0 0l960.0 0l0 540.0l-960.0 0l0 -540.0z" clip-rule="nonzero"/></clipPath><g clip-path="url(#g79ae98dee3_0_19.0)"><path fill="#ffffff" d="m0 0l960.0 0l0 540.0l-960.0 0z" fill-rule="evenodd"/><path fill="#adc8f3" d="m253.44095 270.0l0 0c0 -189.67285 170.03308 -343.43307 379.7795 -343.43307l0 0c209.74646 0 379.77954 153.76022 379.77954 343.43307l0 0c0 189.67285 -170.03308 343.43304 -379.77954 343.43304l0 0c-209.74643 0 -379.7795 -153.7602 -379.7795 -343.43304z" fill-rule="evenodd"/><path stroke="#595959" stroke-width="1.0" stroke-linejoin="round" stroke-linecap="butt" d="m253.44095 270.0l0 0c0 -189.67285 170.03308 -343.43307 379.7795 -343.43307l0 0c209.74646 0 379.77954 153.76022 379.77954 343.43307l0 0c0 189.67285 -170.03308 343.43304 -379.77954 343.43304l0 0c-209.74643 0 -379.7795 -153.7602 -379.7795 -343.43304z" fill-rule="evenodd"/><path fill="#a2f37d" d="m-226.55118 281.0l0 0c0 -189.67285 170.03308 -343.43307 379.77954 -343.43307l0 0c209.74644 0 379.77954 153.76022 379.77954 343.43307l0 0c0 189.67285 -170.03308 343.43304 -379.77954 343.43304l0 0c-209.74644 0 -379.77954 -153.7602 -379.77954 -343.43304z" fill-rule="evenodd"/><path stroke="#595959" stroke-width="1.0" stroke-linejoin="round" stroke-linecap="butt" d="m-226.55118 281.0l0 0c0 -189.67285 170.03308 -343.43307 379.77954 -343.43307l0 0c209.74644 0 379.77954 153.76022 379.77954 343.43307l0 0c0 189.67285 -170.03308 343.43304 -379.77954 343.43304l0 0c-209.74644 0 -379.77954 -153.7602 -379.77954 -343.43304z" fill-rule="evenodd"/><path fill="#eeeeee" d="m57.984253 253.00787l250.01575 0l0 106.99213l-250.01575 0z" fill-rule="evenodd"/><path stroke="#595959" stroke-width="1.0" stroke-linejoin="round" stroke-linecap="butt" d="m57.984253 253.00787l250.01575 0l0 106.99213l-250.01575 0z" fill-rule="evenodd"/><path fill="#000000" d="m84.06238 301.23645l-16.03125 0l0 -1.640625l9.5625 0l0.234375 -6.96875l-7.28125 0l0 -1.640625l9.0625 0l-0.234375 8.609375l4.6875 0l0 1.640625zm2.0703125 -4.90625l0 -1.625l16.546875 0l0 1.625l-16.546875 0zm30.804688 -3.78125l4.375 0l0 1.640625l-4.296875 0l0 1.40625q0 5.5625 -5.875 7.9375l-1.1875 -1.328125q5.34375 -1.78125 5.34375 -6.46875l0 -1.546875l-4.890625 0l0.078125 3.78125l-1.640625 0l-0.078125 -3.78125l-4.15625 0l0 -1.640625l4.15625 0l-0.0625 -3.9375l1.546875 0q0.75 0.078125 0.078125 0.75l0.078125 3.1875l4.828125 0l0 -4.53125l1.625 0q0.75 0.078125 0.078125 0.75l0 3.78125zm1.328125 -4.890625q1.1875 1.03125 2.375 2.4375l-0.953125 0.828125q-1.1875 -1.484375 -2.234375 -2.375l0.8125 -0.890625zm1.421875 -1.265625q1.25 1.03125 2.375 2.453125l-0.96875 0.8125q-1.109375 -1.484375 -2.234375 -2.375l0.828125 -0.890625zm3.703125 9.9375l0 -1.625l16.546875 0l0 1.625l-16.546875 0zm27.617188 -4.375q-1.265625 7.421875 -3.046875 9.203125q-0.96875 0.96875 -2.0 0.96875q-1.1875 0 -1.859375 -0.671875q-1.78125 -1.78125 -1.78125 -4.453125q0 -3.265625 2.296875 -5.5625q2.53125 -2.53125 6.15625 -2.53125q3.265625 0 5.125 1.859375q2.078125 2.078125 2.078125 4.90625q0 3.03125 -1.921875 4.96875q-1.265625 1.265625 -3.859375 2.453125l-1.5625 -1.5625q2.59375 -0.8125 4.078125 -2.296875q1.40625 -1.421875 1.40625 -3.421875q0 -2.375 -1.546875 -3.9375q-1.5625 -1.546875 -4.90625 -1.40625l1.34375 0.671875q0.890625 0.375 0 0.8125zm-1.71875 -1.40625q-1.921875 0.4375 -3.328125 1.859375q-1.9375 1.921875 -1.9375 4.75q0 1.703125 1.109375 2.8125q0.234375 0.21875 0.671875 0.21875q0.453125 0 0.96875 -0.515625q1.703125 -1.703125 2.515625 -9.125zm19.53125 4.296875q0.140625 5.640625 -4.828125 8.765625l-1.265625 -1.40625q4.375 -2.375 4.375 -6.6875l0 -3.1875l1.5625 0q0.671875 0.078125 0.15625 0.515625l0 1.9375q2.671875 -2.015625 4.078125 -3.9375l-12.09375 0.4375l-0.15625 -1.703125l13.515625 -0.375l0.515625 -0.140625l1.109375 1.328125q0.21875 0.296875 -0.375 0.234375q-2.21875 2.890625 -5.34375 5.40625l-1.25 -1.1875zm9.1171875 2.15625q7.796875 -3.265625 11.8125 -9.203125l1.40625 1.1875q0.59375 0.453125 -0.515625 0.671875q-1.421875 1.859375 -3.640625 3.78125l0 10.09375l-1.703125 0l0 -8.6875q-2.609375 2.015625 -6.09375 3.640625l-1.265625 -1.484375zm25.988281 -4.15625l-10.328125 0l0 -1.625l12.03125 0l0 10.609375l-1.703125 0l0 -0.8125l-10.328125 0l0 -1.640625l10.328125 0l0 -6.53125zm19.140625 0.96875q-3.9375 8.15625 -13.203125 8.609375q-0.375 0.96875 -0.75 0.15625l-0.59375 -1.9375q9.65625 -0.21875 12.984375 -7.9375l1.5625 1.109375zm-10.46875 0q-2.0 -1.859375 -3.78125 -3.046875l1.265625 -1.5625q1.5625 0.96875 3.9375 3.203125l-1.421875 1.40625zm26.792969 7.640625l0 -10.3125l1.421875 0q0.59375 0.078125 0.0625 0.4375l0 12.1875l-1.484375 0l0 -0.890625l-11.9375 0l0 0.953125l-1.484375 0l0 -12.765625l1.40625 0q0.59375 0.078125 0.078125 0.453125l0 9.9375l11.9375 0zm-6.59375 -2.8125l0 -2.375l-2.3125 0l0 2.375l2.3125 0zm3.5625 -2.375l-2.3125 0l0 2.375l2.3125 0l0 -2.375zm0 -1.1875l0 -2.15625l-2.3125 0l0 2.15625l2.3125 0zm5.40625 -5.578125l-7.71875 0l0 2.234375l3.5625 0l0 8.09375l-8.375 0l0 -8.09375l3.5625 0l0 -2.234375l-7.578125 0l0 -1.40625l16.546875 0l0 1.40625zm-8.96875 5.578125l0 -2.15625l-2.3125 0l0 2.15625l2.3125 0zm16.03125 -7.0625q-0.53125 2.75 -1.484375 4.390625l0.296875 0.0625q0.21875 0.234375 -0.15625 0.453125l0 11.140625l-1.484375 0l0 -9.21875q-0.734375 1.125 -1.5625 1.859375l-0.8125 -1.484375q3.265625 -3.484375 3.78125 -8.15625l1.640625 0.59375q0.296875 0.296875 -0.21875 0.359375zm6.15625 10.03125q-2.296875 1.703125 -5.640625 2.8125l-0.375 -1.265625q3.421875 -1.03125 5.265625 -2.59375l-0.515625 -0.671875q-2.453125 1.484375 -4.828125 2.15625l-0.4375 -1.1875q2.890625 -0.734375 4.890625 -2.21875l-3.109375 0l0 -3.125q-0.75 0.671875 -1.703125 1.1875l-0.53125 -1.328125q3.125 -2.015625 4.453125 -5.046875l1.421875 0.359375q0.296875 0.296875 -0.234375 0.375l-0.21875 0.375l2.828125 0l0.21875 -0.296875l1.328125 0.671875q0.453125 0.359375 -0.296875 0.515625l-1.484375 2.0l4.015625 0l0 4.3125l-4.453125 0q-0.375 0.296875 -0.890625 0.65625q0.734375 0.53125 1.328125 1.484375q1.78125 -0.890625 3.046875 -1.921875l1.109375 1.109375q0.078125 0.375 -0.359375 0.21875q-1.265625 0.671875 -2.96875 1.421875q1.921875 2.375 4.515625 3.40625l-0.890625 1.421875q-2.296875 -1.265625 -3.703125 -3.28125q0.515625 4.390625 -1.640625 4.390625l-1.484375 0l-0.296875 -1.40625l1.265625 0q1.109375 0 0.890625 -2.53125q-2.671875 2.296875 -6.375 3.5625l-0.375 -1.34375q3.78125 -1.25 6.53125 -3.625l-0.296875 -0.59375zm-3.484375 -4.15625l2.96875 0l0 -1.9375l-2.96875 0l0 1.9375zm4.21875 0l3.046875 0l0 -1.9375l-3.046875 0l0 1.9375zm-2.890625 -4.828125q-0.375 0.515625 -1.40625 1.703125l3.1875 0l1.1875 -1.703125l-2.96875 0zm15.0625 4.75q0.890625 -0.296875 1.71875 -0.296875q0.953125 0 1.546875 0.59375q0.453125 0.4375 0.53125 1.625q2.21875 -0.8125 5.046875 -1.703125l0.515625 1.78125q-2.890625 0.453125 -5.421875 1.40625l0 3.265625l-1.484375 0l0 -2.671875q-2.21875 1.046875 -2.890625 1.71875q-0.8125 0.8125 -0.8125 1.625q0 0.453125 0.4375 0.890625q0.515625 0.53125 2.0 0.53125l6.234375 0l0 1.40625l-6.296875 0q-2.375 0 -3.34375 -0.96875q-0.75 -0.75 -0.75 -1.859375q0 -1.1875 0.96875 -2.15625q1.484375 -1.484375 4.375 -2.671875q-0.0625 -0.890625 -0.359375 -1.1875q-0.296875 -0.296875 -1.265625 -0.296875q-1.484375 0 -4.53125 2.671875l-1.265625 -1.25q3.5 -2.15625 4.75 -4.75q-2.078125 0.140625 -4.15625 0.296875l-0.296875 -1.484375q2.671875 -0.078125 5.046875 -0.234375q0.375 -0.890625 0.890625 -2.96875l1.421875 0.375q0.734375 0.296875 0 0.59375q-0.296875 0.96875 -0.671875 1.9375q2.671875 -0.234375 5.125 -0.59375l0.21875 1.546875q-2.890625 0.234375 -5.796875 0.453125q-0.734375 1.484375 -1.484375 2.375zm21.238281 5.125q-1.5625 2.140625 -4.6875 4.15625l-0.8125 -1.78125q3.1875 -1.421875 5.421875 -4.453125l-5.34375 0l0 -1.421875l5.421875 0l0 -2.21875l-2.234375 0l0 0.671875l-1.484375 0l0 -6.171875l8.765625 0l0 6.09375l-1.484375 0l0 -0.59375l-2.078125 0l0 2.21875l5.40625 0l0 1.421875l-5.265625 0q2.078125 2.890625 5.71875 4.375l-0.515625 1.703125q-3.125 -1.1875 -5.34375 -4.078125l0 5.203125l-1.484375 0l0 -5.125zm-4.828125 -11.0625q-0.21875 1.625 -1.1875 3.859375l0.21875 0.140625q0.296875 0.296875 -0.21875 0.375l0 11.8125l-1.484375 0l0 -9.4375q-0.59375 0.96875 -1.40625 1.78125l-0.96875 -1.484375q2.671875 -2.59375 3.640625 -8.015625l1.625 0.59375q0.296875 0.296875 -0.21875 0.375zm2.59375 1.265625l0 2.671875l5.796875 0l0 -2.671875l-5.796875 0z" fill-rule="nonzero"/><path fill="#000000" d="m70.99988 319.15833q-1.640625 1.625 -2.3125 2.0l-0.8125 -1.5625q1.78125 -1.109375 3.125 -2.890625l0 -1.34375l0.890625 0.234375q0.953125 -1.484375 1.484375 -3.046875l-5.046875 0l0 -1.40625l5.40625 0q0.234375 -0.671875 0.53125 -2.078125l1.625 0.4375q0.296875 0.296875 -0.21875 0.375l-0.296875 1.265625l8.984375 0l0 1.40625l-9.4375 0q-0.8125 2.515625 -2.4375 4.828125l0 8.609375l-1.484375 0l0 -6.828125zm4.078125 -4.828125l6.75 0l0.21875 -0.21875l1.1875 0.953125q0.453125 0.453125 -0.296875 0.59375l-2.8125 2.234375l0 1.109375l4.671875 0l0 1.40625l-4.671875 0l0 4.234375q0 1.1875 -1.1875 1.1875l-1.484375 0l-0.21875 -1.40625l1.109375 0q0.296875 0 0.296875 -0.296875l0 -3.71875l-5.125 0l0 -1.40625l5.125 0l0 -2.15625l0.734375 0.078125l1.265625 -1.1875l-5.5625 0l0 -1.40625zm20.03125 6.234375q-0.890625 0.515625 -1.84375 0.515625q-1.265625 0 -1.9375 -0.671875q-0.890625 -0.890625 -0.890625 -2.0q0 -1.1875 0.890625 -2.078125q0.890625 -0.890625 2.234375 -0.890625q0.890625 0 1.703125 0.21875l0 -1.625l-8.171875 0.515625l-0.296875 -1.5625l8.46875 -0.359375l0 -3.5l1.328125 0q0.828125 0.15625 0.15625 0.59375l0 2.828125l6.3125 -0.453125l0 1.5625l-6.3125 0.296875l0 2.828125q0.296875 1.328125 0.296875 2.96875q-0.078125 3.78125 -4.234375 6.375l-1.40625 -1.03125q3.703125 -2.15625 3.703125 -4.53125zm-1.40625 -3.859375q-0.8125 0 -1.328125 0.515625q-0.453125 0.453125 -0.453125 1.1875q0 0.671875 0.375 1.046875q0.375 0.359375 1.1875 0.359375q0.8125 0 1.328125 -0.515625q0.453125 -0.4375 0.453125 -1.109375q0 -0.671875 -0.453125 -1.109375q-0.359375 -0.375 -1.109375 -0.375zm21.007812 7.34375q1.1875 -0.140625 2.0 -0.96875q0.890625 -0.890625 0.890625 -2.375q0 -1.625 -0.96875 -2.59375q-0.953125 -0.96875 -3.03125 -0.96875q-2.453125 0 -3.796875 0.96875q-1.25 0.890625 -3.265625 3.1875l-1.25 -1.109375q5.34375 -5.34375 8.078125 -8.90625q-2.4375 0.296875 -4.890625 0.515625l-0.515625 -1.703125q3.625 0 6.453125 -0.375l0.671875 -0.296875l0.8125 0.828125q0.8125 0.734375 -0.375 0.953125q-2.21875 2.53125 -4.453125 4.984375q1.5625 -0.375 2.59375 -0.375q2.828125 0 4.15625 1.328125q1.34375 1.34375 1.34375 3.421875q0 2.15625 -1.1875 3.34375q-1.78125 1.78125 -4.53125 1.78125q-2.59375 0 -3.78125 -1.1875q-0.96875 -0.96875 -0.96875 -2.3125q0 -0.890625 0.671875 -1.546875q0.734375 -0.75 1.703125 -0.75q1.34375 0 2.234375 0.890625q1.03125 1.046875 1.40625 3.265625zm-1.484375 0.21875q-0.21875 -1.921875 -0.890625 -2.59375q-0.515625 -0.515625 -1.046875 -0.515625q-0.59375 0 -0.890625 0.296875q-0.359375 0.375 -0.359375 0.8125q0 0.671875 0.59375 1.265625q0.734375 0.734375 1.921875 0.734375q0.296875 0 0.671875 0z" fill-rule="nonzero"/><path fill="#eeeeee" d="m716.0315 253.00787l220.0 0l0 106.99213l-220.0 0z" fill-rule="evenodd"/><path stroke="#595959" stroke-width="1.0" stroke-linejoin="round" stroke-linecap="butt" d="m716.0315 253.00787l220.0 0l0 106.99213l-220.0 0z" fill-rule="evenodd"/><path fill="#000000" d="m740.39087 312.4552l0 -10.3125l1.421875 0q0.59375 0.078125 0.0625 0.4375l0 12.1875l-1.484375 0l0 -0.890625l-11.9375 0l0 0.953125l-1.484375 0l0 -12.765625l1.40625 0q0.59375 0.078125 0.078125 0.453125l0 9.9375l11.9375 0zm-6.59375 -2.8125l0 -2.375l-2.3125 0l0 2.375l2.3125 0zm3.5625 -2.375l-2.3125 0l0 2.375l2.3125 0l0 -2.375zm0 -1.1875l0 -2.15625l-2.3125 0l0 2.15625l2.3125 0zm5.40625 -5.578125l-7.71875 0l0 2.234375l3.5625 0l0 8.09375l-8.375 0l0 -8.09375l3.5625 0l0 -2.234375l-7.578125 0l0 -1.40625l16.546875 0l0 1.40625zm-8.96875 5.578125l0 -2.15625l-2.3125 0l0 2.15625l2.3125 0zm16.03125 -7.0625q-0.53125 2.75 -1.484375 4.390625l0.296875 0.0625q0.21875 0.234375 -0.15625 0.453125l0 11.140625l-1.484375 0l0 -9.21875q-0.734375 1.125 -1.5625 1.859375l-0.8125 -1.484375q3.265625 -3.484375 3.78125 -8.15625l1.640625 0.59375q0.296875 0.296875 -0.21875 0.359375zm6.15625 10.03125q-2.296875 1.703125 -5.640625 2.8125l-0.375 -1.265625q3.421875 -1.03125 5.265625 -2.59375l-0.515625 -0.671875q-2.453125 1.484375 -4.828125 2.15625l-0.4375 -1.1875q2.890625 -0.734375 4.890625 -2.21875l-3.109375 0l0 -3.125q-0.75 0.671875 -1.703125 1.1875l-0.53125 -1.328125q3.125 -2.015625 4.453125 -5.046875l1.421875 0.359375q0.296875 0.296875 -0.234375 0.375l-0.21875 0.375l2.828125 0l0.21875 -0.296875l1.328125 0.671875q0.453125 0.359375 -0.296875 0.515625l-1.484375 2.0l4.015625 0l0 4.3125l-4.453125 0q-0.375 0.296875 -0.890625 0.65625q0.734375 0.53125 1.328125 1.484375q1.78125 -0.890625 3.046875 -1.921875l1.109375 1.109375q0.078125 0.375 -0.359375 0.21875q-1.265625 0.671875 -2.96875 1.421875q1.921875 2.375 4.515625 3.40625l-0.890625 1.421875q-2.296875 -1.265625 -3.703125 -3.28125q0.515625 4.390625 -1.640625 4.390625l-1.484375 0l-0.296875 -1.40625l1.265625 0q1.109375 0 0.890625 -2.53125q-2.671875 2.296875 -6.375 3.5625l-0.375 -1.34375q3.78125 -1.25 6.53125 -3.625l-0.296875 -0.59375zm-3.484375 -4.15625l2.96875 0l0 -1.9375l-2.96875 0l0 1.9375zm4.21875 0l3.046875 0l0 -1.9375l-3.046875 0l0 1.9375zm-2.890625 -4.828125q-0.375 0.515625 -1.40625 1.703125l3.1875 0l1.1875 -1.703125l-2.96875 0zm15.0625 4.75q0.890625 -0.296875 1.71875 -0.296875q0.953125 0 1.546875 0.59375q0.453125 0.4375 0.53125 1.625q2.21875 -0.8125 5.046875 -1.703125l0.515625 1.78125q-2.890625 0.453125 -5.421875 1.40625l0 3.265625l-1.484375 0l0 -2.671875q-2.21875 1.046875 -2.890625 1.71875q-0.8125 0.8125 -0.8125 1.625q0 0.453125 0.4375 0.890625q0.515625 0.53125 2.0 0.53125l6.234375 0l0 1.40625l-6.296875 0q-2.375 0 -3.34375 -0.96875q-0.75 -0.75 -0.75 -1.859375q0 -1.1875 0.96875 -2.15625q1.484375 -1.484375 4.375 -2.671875q-0.0625 -0.890625 -0.359375 -1.1875q-0.296875 -0.296875 -1.265625 -0.296875q-1.484375 0 -4.53125 2.671875l-1.265625 -1.25q3.5 -2.15625 4.75 -4.75q-2.078125 0.140625 -4.15625 0.296875l-0.296875 -1.484375q2.671875 -0.078125 5.046875 -0.234375q0.375 -0.890625 0.890625 -2.96875l1.421875 0.375q0.734375 0.296875 0 0.59375q-0.296875 0.96875 -0.671875 1.9375q2.671875 -0.234375 5.125 -0.59375l0.21875 1.546875q-2.890625 0.234375 -5.796875 0.453125q-0.734375 1.484375 -1.484375 2.375z" fill-rule="nonzero"/><path fill="#000000" d="m780.12915 309.12708l1.65625 -0.140625q0.125 1.0 0.546875 1.640625q0.4375 0.640625 1.34375 1.046875q0.921875 0.390625 2.0625 0.390625q1.0 0 1.78125 -0.296875q0.78125 -0.296875 1.15625 -0.8125q0.375 -0.53125 0.375 -1.15625q0 -0.625 -0.375 -1.09375q-0.359375 -0.46875 -1.1875 -0.796875q-0.546875 -0.203125 -2.390625 -0.640625q-1.828125 -0.453125 -2.5625 -0.84375q-0.96875 -0.5 -1.4375 -1.234375q-0.46875 -0.75 -0.46875 -1.671875q0 -1.0 0.578125 -1.875q0.578125 -0.890625 1.671875 -1.34375q1.109375 -0.453125 2.453125 -0.453125q1.484375 0 2.609375 0.484375q1.140625 0.46875 1.75 1.40625q0.609375 0.921875 0.65625 2.09375l-1.6875 0.125q-0.140625 -1.265625 -0.9375 -1.90625q-0.78125 -0.65625 -2.3125 -0.65625q-1.609375 0 -2.34375 0.59375q-0.734375 0.59375 -0.734375 1.421875q0 0.71875 0.53125 1.171875q0.5 0.46875 2.65625 0.96875q2.15625 0.484375 2.953125 0.84375q1.171875 0.53125 1.71875 1.359375q0.5625 0.828125 0.5625 1.90625q0 1.0625 -0.609375 2.015625q-0.609375 0.9375 -1.75 1.46875q-1.140625 0.515625 -2.578125 0.515625q-1.8125 0 -3.046875 -0.53125q-1.21875 -0.53125 -1.921875 -1.59375q-0.6875 -1.0625 -0.71875 -2.40625zm12.3811035 0.765625l1.640625 -0.21875q0.28125 1.40625 0.953125 2.015625q0.6875 0.609375 1.65625 0.609375q1.15625 0 1.953125 -0.796875q0.796875 -0.796875 0.796875 -1.984375q0 -1.125 -0.734375 -1.859375q-0.734375 -0.734375 -1.875 -0.734375q-0.46875 0 -1.15625 0.171875l0.1875 -1.4375q0.15625 0.015625 0.265625 0.015625q1.046875 0 1.875 -0.546875q0.84375 -0.546875 0.84375 -1.671875q0 -0.90625 -0.609375 -1.5q-0.609375 -0.59375 -1.578125 -0.59375q-0.953125 0 -1.59375 0.609375q-0.640625 0.59375 -0.8125 1.796875l-1.640625 -0.296875q0.296875 -1.640625 1.359375 -2.546875q1.0625 -0.90625 2.65625 -0.90625q1.09375 0 2.0 0.46875q0.921875 0.46875 1.40625 1.28125q0.5 0.8125 0.5 1.71875q0 0.859375 -0.46875 1.578125q-0.46875 0.703125 -1.375 1.125q1.1875 0.28125 1.84375 1.140625q0.65625 0.859375 0.65625 2.15625q0 1.734375 -1.28125 2.953125q-1.265625 1.21875 -3.21875 1.21875q-1.765625 0 -2.921875 -1.046875q-1.15625 -1.046875 -1.328125 -2.71875z" fill-rule="nonzero"/><path fill="#000000" d="m814.7922 312.53333q-3.484375 0 -5.78125 -2.234375l0.96875 -1.25q2.0 1.921875 4.8125 1.84375l4.09375 0l0 1.640625l-4.09375 0zm-10.609375 1.40625q-0.21875 -3.859375 -0.21875 -6.609375q0 -3.328125 0.8125 -7.9375l1.484375 0.375q0.8125 0.140625 0.078125 0.671875q-0.75 4.296875 -0.75 6.890625q0 2.90625 0.296875 6.46875l-1.703125 0.140625zm13.734375 -10.984375q-3.1875 -0.078125 -8.3125 0.453125l0 -1.5625q5.34375 -0.515625 8.3125 -0.453125l0 1.5625zm12.917969 6.984375q-1.5625 2.140625 -4.6875 4.15625l-0.8125 -1.78125q3.1875 -1.421875 5.421875 -4.453125l-5.34375 0l0 -1.421875l5.421875 0l0 -2.21875l-2.234375 0l0 0.671875l-1.484375 0l0 -6.171875l8.765625 0l0 6.09375l-1.484375 0l0 -0.59375l-2.078125 0l0 2.21875l5.40625 0l0 1.421875l-5.265625 0q2.078125 2.890625 5.71875 4.375l-0.515625 1.703125q-3.125 -1.1875 -5.34375 -4.078125l0 5.203125l-1.484375 0l0 -5.125zm-4.828125 -11.0625q-0.21875 1.625 -1.1875 3.859375l0.21875 0.140625q0.296875 0.296875 -0.21875 0.375l0 11.8125l-1.484375 0l0 -9.4375q-0.59375 0.96875 -1.40625 1.78125l-0.96875 -1.484375q2.671875 -2.59375 3.640625 -8.015625l1.625 0.59375q0.296875 0.296875 -0.21875 0.375zm2.59375 1.265625l0 2.671875l5.796875 0l0 -2.671875l-5.796875 0zm14.40625 8.015625q-1.640625 1.625 -2.3125 2.0l-0.8125 -1.5625q1.78125 -1.109375 3.125 -2.890625l0 -1.34375l0.890625 0.234375q0.953125 -1.484375 1.484375 -3.046875l-5.046875 0l0 -1.40625l5.40625 0q0.234375 -0.671875 0.53125 -2.078125l1.625 0.4375q0.296875 0.296875 -0.21875 0.375l-0.296875 1.265625l8.984375 0l0 1.40625l-9.4375 0q-0.8125 2.515625 -2.4375 4.828125l0 8.609375l-1.484375 0l0 -6.828125zm4.078125 -4.828125l6.75 0l0.21875 -0.21875l1.1875 0.953125q0.453125 0.453125 -0.296875 0.59375l-2.8125 2.234375l0 1.109375l4.671875 0l0 1.40625l-4.671875 0l0 4.234375q0 1.1875 -1.1875 1.1875l-1.484375 0l-0.21875 -1.40625l1.109375 0q0.296875 0 0.296875 -0.296875l0 -3.71875l-5.125 0l0 -1.40625l5.125 0l0 -2.15625l0.734375 0.078125l1.265625 -1.1875l-5.5625 0l0 -1.40625zm20.03125 6.234375q-0.890625 0.515625 -1.84375 0.515625q-1.265625 0 -1.9375 -0.671875q-0.890625 -0.890625 -0.890625 -2.0q0 -1.1875 0.890625 -2.078125q0.890625 -0.890625 2.234375 -0.890625q0.890625 0 1.703125 0.21875l0 -1.625l-8.171875 0.515625l-0.296875 -1.5625l8.46875 -0.359375l0 -3.5l1.328125 0q0.828125 0.15625 0.15625 0.59375l0 2.828125l6.3125 -0.453125l0 1.5625l-6.3125 0.296875l0 2.828125q0.296875 1.328125 0.296875 2.96875q-0.078125 3.78125 -4.234375 6.375l-1.40625 -1.03125q3.703125 -2.15625 3.703125 -4.53125zm-1.40625 -3.859375q-0.8125 0 -1.328125 0.515625q-0.453125 0.453125 -0.453125 1.1875q0 0.671875 0.375 1.046875q0.375 0.359375 1.1875 0.359375q0.8125 0 1.328125 -0.515625q0.453125 -0.4375 0.453125 -1.109375q0 -0.671875 -0.453125 -1.109375q-0.359375 -0.375 -1.109375 -0.375zm21.007812 7.34375q1.1875 -0.140625 2.0 -0.96875q0.890625 -0.890625 0.890625 -2.375q0 -1.625 -0.96875 -2.59375q-0.953125 -0.96875 -3.03125 -0.96875q-2.453125 0 -3.796875 0.96875q-1.25 0.890625 -3.265625 3.1875l-1.25 -1.109375q5.34375 -5.34375 8.078125 -8.90625q-2.4375 0.296875 -4.890625 0.515625l-0.515625 -1.703125q3.625 0 6.453125 -0.375l0.671875 -0.296875l0.8125 0.828125q0.8125 0.734375 -0.375 0.953125q-2.21875 2.53125 -4.453125 4.984375q1.5625 -0.375 2.59375 -0.375q2.828125 0 4.15625 1.328125q1.34375 1.34375 1.34375 3.421875q0 2.15625 -1.1875 3.34375q-1.78125 1.78125 -4.53125 1.78125q-2.59375 0 -3.78125 -1.1875q-0.96875 -0.96875 -0.96875 -2.3125q0 -0.890625 0.671875 -1.546875q0.734375 -0.75 1.703125 -0.75q1.34375 0 2.234375 0.890625q1.03125 1.046875 1.40625 3.265625zm-1.484375 0.21875q-0.21875 -1.921875 -0.890625 -2.59375q-0.515625 -0.515625 -1.046875 -0.515625q-0.59375 0 -0.890625 0.296875q-0.359375 0.375 -0.359375 0.8125q0 0.671875 0.59375 1.265625q0.734375 0.734375 1.921875 0.734375q0.296875 0 0.671875 0z" fill-rule="nonzero"/><path fill="#000000" fill-opacity="0.0" d="m57.984253 137.0l176.0 0l0 48.472443l-176.0 0z" fill-rule="evenodd"/><path fill="#000000" d="m80.828 163.68063q-5.359375 -2.734375 -7.875 -3.390625l0 9.59375l-3.15625 0l0 -19.75l2.390625 0q2.421875 0.203125 0.765625 1.5l0 5.28125q4.265625 1.21875 9.46875 3.703125l-1.59375 3.0625zm-0.484375 -8.234375q-1.859375 -2.296875 -3.9375 -3.875l2.046875 -1.5625q1.9375 1.484375 3.90625 3.890625l-2.015625 1.546875zm2.234375 -1.765625q-1.484375 -1.9375 -3.8125 -3.796875l2.015625 -1.5625q1.953125 1.390625 3.8125 3.8125l-2.015625 1.546875zm2.140625 13.15625q6.234375 -3.359375 8.40625 -6.765625q-2.15625 -1.296875 -4.59375 -2.34375l1.609375 -2.953125q2.515625 1.125 4.6875 2.375q1.046875 -2.171875 2.09375 -7.265625l2.765625 0.921875q1.890625 0.546875 0.1875 1.390625q-1.171875 4.53125 -2.296875 6.703125q1.890625 1.265625 3.640625 2.671875l-1.71875 3.046875q-2.3125 -1.953125 -3.578125 -2.796875q-3.25 4.375 -8.4375 7.53125l-2.765625 -2.515625zm17.5625 -5.34375q10.34375 -4.328125 15.625 -12.15625l2.203125 1.84375q1.625 1.21875 -0.6875 1.6875q-1.703125 2.234375 -4.375 4.5625l0 13.015625l-3.15625 0l0 -10.453125q-2.515625 1.9375 -7.328125 4.1875l-2.28125 -2.6875zm39.34375 -3.984375q-5.28125 10.953125 -16.984375 11.515625q-0.78125 2.03125 -1.75 -0.125l-0.953125 -3.09375q12.53125 -0.296875 16.859375 -10.3125l2.828125 2.015625zm-13.84375 0.84375q-2.859375 -2.640625 -5.53125 -4.421875l2.21875 -2.734375q2.390625 1.46875 5.796875 4.671875l-2.484375 2.484375zm25.59375 -4.71875l1.21875 2.125l3.109375 0l0.375 -1.0625l-10.21875 0l0 8.03125q0 4.453125 -2.53125 8.640625l-2.375 -2.078125q2.03125 -3.140625 2.03125 -7.125l0 -12.96875l18.8125 0l0 5.5l-3.0 -0.203125l0.171875 -0.15625q1.140625 1.15625 -0.265625 1.34375l-0.03125 0.078125l3.59375 0l0 7.09375l-16.0 0l0 -7.09375l3.0625 0l-0.609375 -0.796875l2.65625 -1.328125zm8.015625 7.09375l0 -0.40625l-3.6875 0l0 0.40625l3.6875 0zm-10.25 0l3.6875 0l0 -0.40625l-3.6875 0l0 0.40625zm1.875 10.46875l-2.875 0l0 -8.21875l12.53125 0l0 7.9375l-2.875 0l0 -0.84375l-6.78125 0l0 1.125zm6.78125 -3.25l0 -0.40625l-6.78125 0l0 0.40625l6.78125 0zm-11.9375 -15.75l13.0625 0l0 -0.5l-13.0625 0l0 0.5zm3.28125 6.0l3.6875 0l0 -0.3125l-3.6875 0l0 0.3125zm6.5625 0l3.6875 0l0 -0.3125l-3.6875 0l0 0.3125zm-4.6875 7.21875l6.78125 0l0 -0.3125l-6.78125 0l0 0.3125z" fill-rule="nonzero"/><path fill="#000000" fill-opacity="0.0" d="m608.0 137.0l304.0 0l0 48.472443l-304.0 0z" fill-rule="evenodd"/><path fill="#000000" d="m618.0781 161.49313q10.34375 -4.328125 15.625 -12.15625l2.203125 1.84375q1.625 1.21875 -0.6875 1.6875q-1.703125 2.234375 -4.375 4.5625l0 13.015625l-3.15625 0l0 -10.453125q-2.515625 1.9375 -7.328125 4.1875l-2.28125 -2.6875zm39.34375 -3.984375q-5.28125 10.953125 -16.984375 11.515625q-0.78125 2.03125 -1.75 -0.125l-0.953125 -3.09375q12.53125 -0.296875 16.859375 -10.3125l2.828125 2.015625zm-13.84375 0.84375q-2.859375 -2.640625 -5.53125 -4.421875l2.21875 -2.734375q2.390625 1.46875 5.796875 4.671875l-2.484375 2.484375zm16.53125 8.375q12.125 -2.8125 12.640625 -11.65625l-14.03125 0l0 -3.0625l14.703125 0l1.5 -0.328125l1.390625 1.265625q-0.390625 13.078125 -13.8125 16.71875l-2.390625 -2.9375zm21.4375 1.625q9.5625 -2.46875 10.5625 -9.0625l-14.171875 0l0 -3.0625l14.765625 0l0.984375 -0.328125l1.921875 1.171875q1.171875 0.984375 -0.03125 1.578125q-1.515625 9.4375 -11.578125 12.421875l-2.453125 -2.71875zm12.015625 -14.40625l-13.9375 0l0 -3.0625l13.9375 0l0 3.0625zm16.421875 5.96875q3.65625 2.8125 8.0 7.25l-2.640625 2.25q-4.234375 -4.4375 -7.5 -6.953125q-3.390625 3.65625 -8.453125 6.984375l-2.546875 -2.28125q10.34375 -6.75 12.78125 -12.328125l-9.875 0.640625l-0.40625 -3.25l11.359375 -0.5l1.359375 -0.328125l1.703125 1.6875q1.328125 1.34375 -0.421875 1.65625q-1.671875 2.921875 -3.359375 5.171875zm14.046875 -3.0q4.265625 1.21875 9.46875 3.703125l-1.59375 3.0625q-5.359375 -2.734375 -7.875 -3.390625l0 9.59375l-3.15625 0l0 -19.75l2.390625 0q2.421875 0.203125 0.765625 1.5l0 5.28125zm14.140625 11.4375q9.5625 -2.46875 10.5625 -9.0625l-14.171875 0l0 -3.0625l14.765625 0l0.984375 -0.328125l1.921875 1.171875q1.171875 0.984375 -0.03125 1.578125q-1.515625 9.4375 -11.578125 12.421875l-2.453125 -2.71875zm12.015625 -14.40625l-13.9375 0l0 -3.0625l13.9375 0l0 3.0625zm21.03125 2.140625q-1.765625 10.171875 -12.28125 14.828125l-2.421875 -2.5625q9.609375 -3.921875 11.3125 -12.25l-6.609375 0q-2.046875 3.375 -4.734375 5.84375l-2.734375 -1.78125q5.234375 -4.734375 6.734375 -11.03125l2.703125 0.9375q1.625 0.8125 0.03125 1.40625q-0.3125 1.03125 -0.59375 1.5625l5.78125 0l1.0625 -0.59375l1.953125 1.953125q1.25 1.25 -0.203125 1.6875zm14.6875 1.453125l7.6875 0l0 3.0625l-7.6875 0q0 6.359375 -6.5 9.96875l-2.21875 -2.234375q5.65625 -3.1875 5.578125 -7.734375l-9.390625 0l0 -3.0625l9.375 0l0 -2.5q-2.09375 0.21875 -6.671875 0.421875l-1.265625 -2.96875q9.765625 -0.203125 14.96875 -1.796875l1.234375 2.34375q0.765625 1.8125 -1.34375 0.9375q-1.828125 0.4375 -3.765625 0.65625l0 2.90625zm17.375 0.28125l7.15625 -1.75l0.734375 -0.4375l1.78125 1.765625q0.96875 0.984375 -0.3125 1.34375q-1.609375 2.578125 -3.765625 5.5l-2.4375 -1.578125q1.8125 -2.375 2.46875 -3.46875l-4.765625 1.171875l3.171875 9.421875l-2.828125 0.984375l-3.09375 -9.78125l-5.421875 1.5l-1.0 -2.84375l5.4375 -1.21875l-1.5 -4.53125l2.578125 -0.484375q1.984375 0 0.890625 1.28125l0.90625 3.125zm21.703125 -4.1875l1.21875 2.125l3.109375 0l0.375 -1.0625l-10.21875 0l0 8.03125q0 4.453125 -2.53125 8.640625l-2.375 -2.078125q2.03125 -3.140625 2.03125 -7.125l0 -12.96875l18.8125 0l0 5.5l-3.0 -0.203125l0.171875 -0.15625q1.140625 1.15625 -0.265625 1.34375l-0.03125 0.078125l3.59375 0l0 7.09375l-16.0 0l0 -7.09375l3.0625 0l-0.609375 -0.796875l2.65625 -1.328125zm8.015625 7.09375l0 -0.40625l-3.6875 0l0 0.40625l3.6875 0zm-10.25 0l3.6875 0l0 -0.40625l-3.6875 0l0 0.40625zm1.875 10.46875l-2.875 0l0 -8.21875l12.53125 0l0 7.9375l-2.875 0l0 -0.84375l-6.78125 0l0 1.125zm6.78125 -3.25l0 -0.40625l-6.78125 0l0 0.40625l6.78125 0zm-11.9375 -15.75l13.0625 0l0 -0.5l-13.0625 0l0 0.5zm3.28125 6.0l3.6875 0l0 -0.3125l-3.6875 0l0 0.3125zm6.5625 0l3.6875 0l0 -0.3125l-3.6875 0l0 0.3125zm-4.6875 7.21875l6.78125 0l0 -0.3125l-6.78125 0l0 0.3125z" fill-rule="nonzero"/><path fill="#000000" fill-opacity="0.0" d="m308.0 306.50394l94.01575 0" fill-rule="evenodd"/><path stroke="#000000" stroke-width="4.0" stroke-linejoin="round" stroke-linecap="butt" d="m308.0 306.50394l70.01575 0" fill-rule="evenodd"/><path fill="#000000" stroke="#000000" stroke-width="4.0" stroke-linecap="butt" d="m378.01575 313.11087l18.152405 -6.6069336l-18.152405 -6.6069336z" fill-rule="evenodd"/><path fill="#eeeeee" d="m402.01575 253.00787l220.0 0l0 106.99213l-220.0 0z" fill-rule="evenodd"/><path stroke="#595959" stroke-width="1.0" stroke-linejoin="round" stroke-linecap="butt" d="m402.01575 253.00787l220.0 0l0 106.99213l-220.0 0z" fill-rule="evenodd"/><path fill="#000000" d="m420.07825 294.84583q0.140625 5.640625 -4.828125 8.765625l-1.265625 -1.40625q4.375 -2.375 4.375 -6.6875l0 -3.1875l1.5625 0q0.671875 0.078125 0.15625 0.515625l0 1.9375q2.671875 -2.015625 4.078125 -3.9375l-12.09375 0.4375l-0.15625 -1.703125l13.515625 -0.375l0.515625 -0.140625l1.109375 1.328125q0.21875 0.296875 -0.375 0.234375q-2.21875 2.890625 -5.34375 5.40625l-1.25 -1.1875zm9.1171875 2.15625q7.796875 -3.265625 11.8125 -9.203125l1.40625 1.1875q0.59375 0.453125 -0.515625 0.671875q-1.421875 1.859375 -3.640625 3.78125l0 10.09375l-1.703125 0l0 -8.6875q-2.609375 2.015625 -6.09375 3.640625l-1.265625 -1.484375zm25.988281 -4.15625l-10.328125 0l0 -1.625l12.03125 0l0 10.609375l-1.703125 0l0 -0.8125l-10.328125 0l0 -1.640625l10.328125 0l0 -6.53125zm19.140625 0.96875q-3.9375 8.15625 -13.203125 8.609375q-0.375 0.96875 -0.75 0.15625l-0.59375 -1.9375q9.65625 -0.21875 12.984375 -7.9375l1.5625 1.109375zm-10.46875 0q-2.0 -1.859375 -3.78125 -3.046875l1.265625 -1.5625q1.5625 0.96875 3.9375 3.203125l-1.421875 1.40625zm26.792969 7.640625l0 -10.3125l1.421875 0q0.59375 0.078125 0.0625 0.4375l0 12.1875l-1.484375 0l0 -0.890625l-11.9375 0l0 0.953125l-1.484375 0l0 -12.765625l1.40625 0q0.59375 0.078125 0.078125 0.453125l0 9.9375l11.9375 0zm-6.59375 -2.8125l0 -2.375l-2.3125 0l0 2.375l2.3125 0zm3.5625 -2.375l-2.3125 0l0 2.375l2.3125 0l0 -2.375zm0 -1.1875l0 -2.15625l-2.3125 0l0 2.15625l2.3125 0zm5.40625 -5.578125l-7.71875 0l0 2.234375l3.5625 0l0 8.09375l-8.375 0l0 -8.09375l3.5625 0l0 -2.234375l-7.578125 0l0 -1.40625l16.546875 0l0 1.40625zm-8.96875 5.578125l0 -2.15625l-2.3125 0l0 2.15625l2.3125 0zm16.03125 -7.0625q-0.53125 2.75 -1.484375 4.390625l0.296875 0.0625q0.21875 0.234375 -0.15625 0.453125l0 11.140625l-1.484375 0l0 -9.21875q-0.734375 1.125 -1.5625 1.859375l-0.8125 -1.484375q3.265625 -3.484375 3.78125 -8.15625l1.640625 0.59375q0.296875 0.296875 -0.21875 0.359375zm6.15625 10.03125q-2.296875 1.703125 -5.640625 2.8125l-0.375 -1.265625q3.421875 -1.03125 5.265625 -2.59375l-0.515625 -0.671875q-2.453125 1.484375 -4.828125 2.15625l-0.4375 -1.1875q2.890625 -0.734375 4.890625 -2.21875l-3.109375 0l0 -3.125q-0.75 0.671875 -1.703125 1.1875l-0.53125 -1.328125q3.125 -2.015625 4.453125 -5.046875l1.421875 0.359375q0.296875 0.296875 -0.234375 0.375l-0.21875 0.375l2.828125 0l0.21875 -0.296875l1.328125 0.671875q0.453125 0.359375 -0.296875 0.515625l-1.484375 2.0l4.015625 0l0 4.3125l-4.453125 0q-0.375 0.296875 -0.890625 0.65625q0.734375 0.53125 1.328125 1.484375q1.78125 -0.890625 3.046875 -1.921875l1.109375 1.109375q0.078125 0.375 -0.359375 0.21875q-1.265625 0.671875 -2.96875 1.421875q1.921875 2.375 4.515625 3.40625l-0.890625 1.421875q-2.296875 -1.265625 -3.703125 -3.28125q0.515625 4.390625 -1.640625 4.390625l-1.484375 0l-0.296875 -1.40625l1.265625 0q1.109375 0 0.890625 -2.53125q-2.671875 2.296875 -6.375 3.5625l-0.375 -1.34375q3.78125 -1.25 6.53125 -3.625l-0.296875 -0.59375zm-3.484375 -4.15625l2.96875 0l0 -1.9375l-2.96875 0l0 1.9375zm4.21875 0l3.046875 0l0 -1.9375l-3.046875 0l0 1.9375zm-2.890625 -4.828125q-0.375 0.515625 -1.40625 1.703125l3.1875 0l1.1875 -1.703125l-2.96875 0zm15.0625 4.75q0.890625 -0.296875 1.71875 -0.296875q0.953125 0 1.546875 0.59375q0.453125 0.4375 0.53125 1.625q2.21875 -0.8125 5.046875 -1.703125l0.515625 1.78125q-2.890625 0.453125 -5.421875 1.40625l0 3.265625l-1.484375 0l0 -2.671875q-2.21875 1.046875 -2.890625 1.71875q-0.8125 0.8125 -0.8125 1.625q0 0.453125 0.4375 0.890625q0.515625 0.53125 2.0 0.53125l6.234375 0l0 1.40625l-6.296875 0q-2.375 0 -3.34375 -0.96875q-0.75 -0.75 -0.75 -1.859375q0 -1.1875 0.96875 -2.15625q1.484375 -1.484375 4.375 -2.671875q-0.0625 -0.890625 -0.359375 -1.1875q-0.296875 -0.296875 -1.265625 -0.296875q-1.484375 0 -4.53125 2.671875l-1.265625 -1.25q3.5 -2.15625 4.75 -4.75q-2.078125 0.140625 -4.15625 0.296875l-0.296875 -1.484375q2.671875 -0.078125 5.046875 -0.234375q0.375 -0.890625 0.890625 -2.96875l1.421875 0.375q0.734375 0.296875 0 0.59375q-0.296875 0.96875 -0.671875 1.9375q2.671875 -0.234375 5.125 -0.59375l0.21875 1.546875q-2.890625 0.234375 -5.796875 0.453125q-0.734375 1.484375 -1.484375 2.375z" fill-rule="nonzero"/><path fill="#000000" d="m530.38684 298.12708l1.65625 -0.140625q0.125 1.0 0.546875 1.640625q0.4375 0.640625 1.34375 1.046875q0.921875 0.390625 2.0625 0.390625q1.0 0 1.78125 -0.296875q0.78125 -0.296875 1.15625 -0.8125q0.375 -0.53125 0.375 -1.15625q0 -0.625 -0.375 -1.09375q-0.359375 -0.46875 -1.1875 -0.796875q-0.546875 -0.203125 -2.390625 -0.640625q-1.828125 -0.453125 -2.5625 -0.84375q-0.96875 -0.5 -1.4375 -1.234375q-0.46875 -0.75 -0.46875 -1.671875q0 -1.0 0.578125 -1.875q0.578125 -0.890625 1.671875 -1.34375q1.109375 -0.453125 2.453125 -0.453125q1.484375 0 2.609375 0.484375q1.140625 0.46875 1.75 1.40625q0.609375 0.921875 0.65625 2.09375l-1.6875 0.125q-0.140625 -1.265625 -0.9375 -1.90625q-0.78125 -0.65625 -2.3125 -0.65625q-1.609375 0 -2.34375 0.59375q-0.734375 0.59375 -0.734375 1.421875q0 0.71875 0.53125 1.171875q0.5 0.46875 2.65625 0.96875q2.15625 0.484375 2.953125 0.84375q1.171875 0.53125 1.71875 1.359375q0.5625 0.828125 0.5625 1.90625q0 1.0625 -0.609375 2.015625q-0.609375 0.9375 -1.75 1.46875q-1.140625 0.515625 -2.578125 0.515625q-1.8125 0 -3.046875 -0.53125q-1.21875 -0.53125 -1.921875 -1.59375q-0.6875 -1.0625 -0.71875 -2.40625zm12.3811035 0.765625l1.640625 -0.21875q0.28125 1.40625 0.953125 2.015625q0.6875 0.609375 1.65625 0.609375q1.15625 0 1.953125 -0.796875q0.796875 -0.796875 0.796875 -1.984375q0 -1.125 -0.734375 -1.859375q-0.734375 -0.734375 -1.875 -0.734375q-0.46875 0 -1.15625 0.171875l0.1875 -1.4375q0.15625 0.015625 0.265625 0.015625q1.046875 0 1.875 -0.546875q0.84375 -0.546875 0.84375 -1.671875q0 -0.90625 -0.609375 -1.5q-0.609375 -0.59375 -1.578125 -0.59375q-0.953125 0 -1.59375 0.609375q-0.640625 0.59375 -0.8125 1.796875l-1.640625 -0.296875q0.296875 -1.640625 1.359375 -2.546875q1.0625 -0.90625 2.65625 -0.90625q1.09375 0 2.0 0.46875q0.921875 0.46875 1.40625 1.28125q0.5 0.8125 0.5 1.71875q0 0.859375 -0.46875 1.578125q-0.46875 0.703125 -1.375 1.125q1.1875 0.28125 1.84375 1.140625q0.65625 0.859375 0.65625 2.15625q0 1.734375 -1.28125 2.953125q-1.265625 1.21875 -3.21875 1.21875q-1.765625 0 -2.921875 -1.046875q-1.15625 -1.046875 -1.328125 -2.71875z" fill-rule="nonzero"/><path fill="#000000" d="m562.61237 291.9552q-1.265625 7.421875 -3.046875 9.203125q-0.96875 0.96875 -2.0 0.96875q-1.1875 0 -1.859375 -0.671875q-1.78125 -1.78125 -1.78125 -4.453125q0 -3.265625 2.296875 -5.5625q2.53125 -2.53125 6.15625 -2.53125q3.265625 0 5.125 1.859375q2.078125 2.078125 2.078125 4.90625q0 3.03125 -1.921875 4.96875q-1.265625 1.265625 -3.859375 2.453125l-1.5625 -1.5625q2.59375 -0.8125 4.078125 -2.296875q1.40625 -1.421875 1.40625 -3.421875q0 -2.375 -1.546875 -3.9375q-1.5625 -1.546875 -4.90625 -1.40625l1.34375 0.671875q0.890625 0.375 0 0.8125zm-1.71875 -1.40625q-1.921875 0.4375 -3.328125 1.859375q-1.9375 1.921875 -1.9375 4.75q0 1.703125 1.109375 2.8125q0.234375 0.21875 0.671875 0.21875q0.453125 0 0.96875 -0.515625q1.703125 -1.703125 2.515625 -9.125z" fill-rule="nonzero"/><path fill="#000000" d="m414.06262 314.3302q-0.375 1.921875 -0.75 2.890625l-1.328125 -0.59375q0.890625 -2.375 1.109375 -5.9375l1.40625 0.15625q0.53125 0.140625 0 0.359375l-0.140625 1.484375l1.03125 0l0 -3.625l1.421875 0q0.59375 0.0625 0.0625 0.4375l0 3.1875l1.859375 0l0 1.640625l-1.859375 0l0 3.40625l1.5625 -0.515625l0.296875 1.40625l-1.859375 0.75l0 6.6875l-1.484375 0l0 -6.015625l-2.140625 0.8125q-0.078125 0.515625 -0.375 0.21875l-0.515625 -1.703125l3.03125 -0.96875l0 -4.078125l-1.328125 0zm7.9375 9.421875q-0.734375 -1.1875 -2.0 -2.21875l1.1875 -0.96875q1.5625 1.03125 2.078125 2.078125l-1.265625 1.109375zm2.296875 -14.6875q0.59375 0.0625 0.078125 0.4375l0 2.15625l3.5625 0l0 1.40625l-3.5625 0l0 2.234375l4.671875 0l0 1.40625l-2.59375 0l0 1.921875l2.234375 0l0 1.421875l-2.234375 0l0 4.828125q0 1.03125 -0.96875 1.03125l-1.703125 0l-0.21875 -1.40625l1.109375 0q0.296875 0 0.296875 -0.296875l0 -4.15625l-5.640625 0l0 -1.421875l5.640625 0l0 -1.921875l-6.234375 0l0 -1.40625l4.15625 0l0 -2.234375l-3.34375 0l0 -1.40625l3.34375 0l0 -2.59375l1.40625 0zm6.984375 15.734375q3.640625 -2.234375 3.5625 -7.125l1.703125 0.296875q0.21875 0.21875 -0.140625 0.4375l-0.375 2.671875q1.109375 1.34375 2.890625 2.296875l0 -7.1875l-5.046875 0l0 -1.421875l11.203125 0l0 1.421875l-4.671875 0l0 2.734375l5.203125 0l0 1.421875l-5.203125 0l0 3.5625q1.109375 0.296875 2.234375 0.296875l4.890625 0l-0.296875 1.40625l-4.59375 0q-4.3125 0 -7.0625 -3.125q-1.109375 2.453125 -3.109375 3.71875l-1.1875 -1.40625zm9.046875 -13.59375l6.828125 0l0 3.9375l-1.484375 0l0 -2.515625l-12.3125 0l0 2.671875l-1.484375 0l0 -4.09375l6.75 0l0 -2.140625l1.640625 0q0.734375 0.140625 0.0625 0.59375l0 1.546875zm18.9375 2.75q-1.265625 7.421875 -3.046875 9.203125q-0.96875 0.96875 -2.0 0.96875q-1.1875 0 -1.859375 -0.671875q-1.78125 -1.78125 -1.78125 -4.453125q0 -3.265625 2.296875 -5.5625q2.53125 -2.53125 6.15625 -2.53125q3.265625 0 5.125 1.859375q2.078125 2.078125 2.078125 4.90625q0 3.03125 -1.921875 4.96875q-1.265625 1.265625 -3.859375 2.453125l-1.5625 -1.5625q2.59375 -0.8125 4.078125 -2.296875q1.40625 -1.421875 1.40625 -3.421875q0 -2.375 -1.546875 -3.9375q-1.5625 -1.546875 -4.90625 -1.40625l1.34375 0.671875q0.890625 0.375 0 0.8125zm-1.71875 -1.40625q-1.921875 0.4375 -3.328125 1.859375q-1.9375 1.921875 -1.9375 4.75q0 1.703125 1.109375 2.8125q0.234375 0.21875 0.671875 0.21875q0.453125 0 0.96875 -0.515625q1.703125 -1.703125 2.515625 -9.125zm15.375 7.5625l1.84375 -0.65625l0.375 0.953125q1.703125 -1.109375 2.53125 -2.59375l-2.96875 0l0 -1.40625l11.203125 0l0 1.40625l-6.75 0q-0.296875 0.59375 -0.59375 0.96875l6.890625 0l-0.4375 5.421875q-0.15625 1.703125 -1.484375 1.703125l-1.78125 0l-0.21875 -1.40625l1.40625 0q0.515625 0 0.59375 -0.53125l0.375 -3.78125l-0.828125 0q-1.328125 5.046875 -7.484375 6.09375l-0.453125 -1.40625q5.265625 -0.96875 6.453125 -4.6875l-1.25 0q-1.34375 3.1875 -4.984375 3.859375l-0.4375 -1.1875q2.96875 -0.734375 3.9375 -2.671875l-1.125 0q-1.546875 1.40625 -2.4375 1.859375l-0.59375 -1.109375l-4.6875 1.84375q-0.0625 0.53125 -0.359375 0.234375l-0.59375 -1.640625l2.375 -0.671875l0 -5.640625l-2.3125 0l0 -1.40625l2.3125 0l0 -4.234375l1.40625 0q0.59375 0.078125 0.078125 0.453125l0 3.78125l2.21875 0l0 1.40625l-2.21875 0l0 5.046875zm3.265625 -4.59375l0 -6.015625l7.78125 0l0 6.015625l-7.78125 0zm1.484375 -3.484375l4.8125 0l0 -1.34375l-4.8125 0l0 1.34375zm0 2.296875l4.8125 0l0 -1.109375l-4.8125 0l0 1.109375zm20.703125 -3.640625q3.265625 -0.515625 4.890625 -1.265625l0.828125 1.421875q0.296875 0.65625 -0.453125 0.296875q-2.75 0.59375 -5.1875 0.8125l0 3.109375l6.53125 0l0 1.421875l-2.453125 0l0 9.34375l-1.484375 0l0 -9.34375l-2.59375 0l0 2.296875q0 4.890625 -3.5625 7.28125l-1.125 -1.34375q3.203125 -1.9375 3.203125 -6.09375l0 -8.453125l1.40625 0.515625zm-2.828125 2.671875l0 6.453125l-1.484375 0l0 -0.734375l-3.328125 0l0 2.078125q0 2.8125 -1.1875 4.75l-1.34375 -1.03125q1.046875 -1.5 1.046875 -3.796875l0 -7.71875l6.296875 0zm-1.484375 4.3125l0 -2.90625l-3.328125 0l0 2.90625l3.328125 0zm-5.40625 -6.3125l0 -1.40625l7.421875 0l0 1.40625l-7.421875 0zm30.046875 12.171875q-3.484375 0 -5.78125 -2.234375l0.96875 -1.25q2.0 1.921875 4.8125 1.84375l4.09375 0l0 1.640625l-4.09375 0zm-10.609375 1.40625q-0.21875 -3.859375 -0.21875 -6.609375q0 -3.328125 0.8125 -7.9375l1.484375 0.375q0.8125 0.140625 0.078125 0.671875q-0.75 4.296875 -0.75 6.890625q0 2.90625 0.296875 6.46875l-1.703125 0.140625zm13.734375 -10.984375q-3.1875 -0.078125 -8.3125 0.453125l0 -1.5625q5.34375 -0.515625 8.3125 -0.453125l0 1.5625zm12.917969 6.984375q-1.5625 2.140625 -4.6875 4.15625l-0.8125 -1.78125q3.1875 -1.421875 5.421875 -4.453125l-5.34375 0l0 -1.421875l5.421875 0l0 -2.21875l-2.234375 0l0 0.671875l-1.484375 0l0 -6.171875l8.765625 0l0 6.09375l-1.484375 0l0 -0.59375l-2.078125 0l0 2.21875l5.40625 0l0 1.421875l-5.265625 0q2.078125 2.890625 5.71875 4.375l-0.515625 1.703125q-3.125 -1.1875 -5.34375 -4.078125l0 5.203125l-1.484375 0l0 -5.125zm-4.828125 -11.0625q-0.21875 1.625 -1.1875 3.859375l0.21875 0.140625q0.296875 0.296875 -0.21875 0.375l0 11.8125l-1.484375 0l0 -9.4375q-0.59375 0.96875 -1.40625 1.78125l-0.96875 -1.484375q2.671875 -2.59375 3.640625 -8.015625l1.625 0.59375q0.296875 0.296875 -0.21875 0.375zm2.59375 1.265625l0 2.671875l5.796875 0l0 -2.671875l-5.796875 0zm14.40625 8.015625q-1.640625 1.625 -2.3125 2.0l-0.8125 -1.5625q1.78125 -1.109375 3.125 -2.890625l0 -1.34375l0.890625 0.234375q0.953125 -1.484375 1.484375 -3.046875l-5.046875 0l0 -1.40625l5.40625 0q0.234375 -0.671875 0.53125 -2.078125l1.625 0.4375q0.296875 0.296875 -0.21875 0.375l-0.296875 1.265625l8.984375 0l0 1.40625l-9.4375 0q-0.8125 2.515625 -2.4375 4.828125l0 8.609375l-1.484375 0l0 -6.828125zm4.078125 -4.828125l6.75 0l0.21875 -0.21875l1.1875 0.953125q0.453125 0.453125 -0.296875 0.59375l-2.8125 2.234375l0 1.109375l4.671875 0l0 1.40625l-4.671875 0l0 4.234375q0 1.1875 -1.1875 1.1875l-1.484375 0l-0.21875 -1.40625l1.109375 0q0.296875 0 0.296875 -0.296875l0 -3.71875l-5.125 0l0 -1.40625l5.125 0l0 -2.15625l0.734375 0.078125l1.265625 -1.1875l-5.5625 0l0 -1.40625z" fill-rule="nonzero"/><path fill="#000000" fill-opacity="0.0" d="m622.01575 306.50394l94.01575 0" fill-rule="evenodd"/><path stroke="#000000" stroke-width="4.0" stroke-linejoin="round" stroke-linecap="butt" d="m622.01575 306.50394l70.01575 0" fill-rule="evenodd"/><path fill="#000000" stroke="#000000" stroke-width="4.0" stroke-linecap="butt" d="m692.0315 313.11087l18.152405 -6.6069336l-18.152405 -6.6069336z" fill-rule="evenodd"/><path fill="#000000" fill-opacity="0.0" d="m402.01575 215.99213l118.01575 0l0 42.015747l-118.01575 0z" fill-rule="evenodd"/><path fill="#000000" d="m412.37512 242.91212l0 -13.359375l5.6875 0q2.140625 0 3.109375 0.359375q0.96875 0.359375 1.546875 1.28125q0.578125 0.921875 0.578125 2.109375q0 1.5 -0.890625 2.484375q-0.875 0.96875 -2.625 1.234375q0.875 0.5 1.4375 1.125q0.578125 0.609375 1.53125 2.15625l1.640625 2.609375l-3.234375 0l-1.9375 -2.90625q-1.046875 -1.5625 -1.4375 -1.96875q-0.375 -0.40625 -0.8125 -0.546875q-0.421875 -0.15625 -1.34375 -0.15625l-0.546875 0l0 5.578125l-2.703125 0zm2.703125 -7.703125l2.0 0q1.9375 0 2.421875 -0.15625q0.484375 -0.171875 0.75 -0.578125q0.28125 -0.40625 0.28125 -1.0q0 -0.671875 -0.359375 -1.078125q-0.359375 -0.421875 -1.015625 -0.53125q-0.328125 -0.046875 -1.96875 -0.046875l-2.109375 0l0 3.390625zm16.347961 4.625l2.546875 0.421875q-0.484375 1.40625 -1.546875 2.140625q-1.0625 0.734375 -2.65625 0.734375q-2.515625 0 -3.734375 -1.65625q-0.953125 -1.3125 -0.953125 -3.328125q0 -2.40625 1.25 -3.765625q1.265625 -1.359375 3.1875 -1.359375q2.15625 0 3.40625 1.421875q1.25 1.421875 1.1875 4.375l-6.40625 0q0.03125 1.140625 0.609375 1.78125q0.59375 0.625 1.484375 0.625q0.59375 0 1.0 -0.328125q0.421875 -0.328125 0.625 -1.0625zm0.15625 -2.59375q-0.03125 -1.109375 -0.578125 -1.6875q-0.546875 -0.578125 -1.328125 -0.578125q-0.84375 0 -1.390625 0.609375q-0.546875 0.609375 -0.53125 1.65625l3.828125 0zm4.547577 -4.0l2.390625 0l0 1.421875q0.46875 -0.734375 1.25 -1.1875q0.796875 -0.453125 1.765625 -0.453125q1.6875 0 2.859375 1.328125q1.171875 1.3125 1.171875 3.671875q0 2.421875 -1.1875 3.765625q-1.1875 1.34375 -2.859375 1.34375q-0.8125 0 -1.46875 -0.3125q-0.640625 -0.328125 -1.359375 -1.09375l0 4.875l-2.5625 0l0 -13.359375zm2.53125 4.671875q0 1.625 0.640625 2.40625q0.65625 0.78125 1.578125 0.78125q0.90625 0 1.484375 -0.71875q0.59375 -0.71875 0.59375 -2.34375q0 -1.515625 -0.609375 -2.25q-0.609375 -0.75 -1.515625 -0.75q-0.9375 0 -1.5625 0.734375q-0.609375 0.71875 -0.609375 2.140625zm8.349121 0.03125q0 -1.28125 0.625 -2.46875q0.625 -1.203125 1.78125 -1.828125q1.15625 -0.625 2.578125 -0.625q2.1875 0 3.59375 1.421875q1.40625 1.421875 1.40625 3.609375q0 2.1875 -1.421875 3.640625q-1.421875 1.4375 -3.5625 1.4375q-1.328125 0 -2.546875 -0.59375q-1.203125 -0.609375 -1.828125 -1.765625q-0.625 -1.171875 -0.625 -2.828125zm2.625 0.125q0 1.453125 0.671875 2.21875q0.6875 0.75 1.6875 0.75q1.0 0 1.671875 -0.75q0.6875 -0.765625 0.6875 -2.234375q0 -1.421875 -0.6875 -2.1875q-0.671875 -0.765625 -1.671875 -0.765625q-1.0 0 -1.6875 0.765625q-0.671875 0.765625 -0.671875 2.203125zm8.458466 2.078125l2.5625 -0.390625q0.171875 0.75 0.671875 1.140625q0.5 0.390625 1.40625 0.390625q0.984375 0 1.484375 -0.375q0.34375 -0.25 0.34375 -0.671875q0 -0.296875 -0.1875 -0.484375q-0.1875 -0.1875 -0.859375 -0.34375q-3.09375 -0.6875 -3.921875 -1.25q-1.140625 -0.78125 -1.140625 -2.171875q0 -1.265625 0.984375 -2.109375q1.0 -0.859375 3.078125 -0.859375q1.984375 0 2.953125 0.65625q0.96875 0.640625 1.328125 1.90625l-2.40625 0.4375q-0.15625 -0.5625 -0.59375 -0.859375q-0.421875 -0.296875 -1.234375 -0.296875q-1.0 0 -1.4375 0.28125q-0.296875 0.203125 -0.296875 0.515625q0 0.265625 0.25 0.46875q0.34375 0.25 2.390625 0.71875q2.046875 0.453125 2.859375 1.140625q0.796875 0.671875 0.796875 1.890625q0 1.34375 -1.109375 2.296875q-1.109375 0.953125 -3.28125 0.953125q-1.984375 0 -3.140625 -0.796875q-1.140625 -0.8125 -1.5 -2.1875zm11.281982 -8.21875l0 -2.375l2.5625 0l0 2.375l-2.5625 0zm0 10.984375l0 -9.671875l2.5625 0l0 9.671875l-2.5625 0zm4.5895386 -4.96875q0 -1.28125 0.625 -2.46875q0.625 -1.203125 1.78125 -1.828125q1.15625 -0.625 2.578125 -0.625q2.1875 0 3.59375 1.421875q1.40625 1.421875 1.40625 3.609375q0 2.1875 -1.421875 3.640625q-1.421875 1.4375 -3.5625 1.4375q-1.328125 0 -2.546875 -0.59375q-1.203125 -0.609375 -1.828125 -1.765625q-0.625 -1.171875 -0.625 -2.828125zm2.625 0.125q0 1.453125 0.671875 2.21875q0.6875 0.75 1.6875 0.75q1.0 0 1.671875 -0.75q0.6875 -0.765625 0.6875 -2.234375q0 -1.421875 -0.6875 -2.1875q-0.671875 -0.765625 -1.671875 -0.765625q-1.0 0 -1.6875 0.765625q-0.671875 0.765625 -0.671875 2.203125zm13.802246 -4.828125l0 2.03125l-1.75 0l0 3.90625q0 1.1875 0.046875 1.390625q0.046875 0.1875 0.21875 0.3125q0.1875 0.125 0.4375 0.125q0.359375 0 1.03125 -0.25l0.21875 2.0q-0.890625 0.375 -2.015625 0.375q-0.703125 0 -1.265625 -0.234375q-0.546875 -0.234375 -0.8125 -0.59375q-0.25 -0.375 -0.34375 -1.0q-0.09375 -0.453125 -0.09375 -1.8125l0 -4.21875l-1.171875 0l0 -2.03125l1.171875 0l0 -1.921875l2.578125 -1.5l0 3.421875l1.75 0zm4.228302 9.671875l-2.5625 0l0 -9.671875l2.375 0l0 1.375q0.609375 -0.984375 1.09375 -1.28125q0.484375 -0.3125 1.109375 -0.3125q0.875 0 1.6875 0.484375l-0.796875 2.234375q-0.640625 -0.421875 -1.203125 -0.421875q-0.53125 0 -0.90625 0.296875q-0.375 0.296875 -0.59375 1.078125q-0.203125 0.765625 -0.203125 3.234375l0 2.984375zm3.588379 -9.671875l2.71875 0l2.328125 6.859375l2.25 -6.859375l2.65625 0l-3.421875 9.3125l-0.609375 1.6875q-0.328125 0.84375 -0.640625 1.28125q-0.3125 0.453125 -0.703125 0.71875q-0.390625 0.28125 -0.96875 0.4375q-0.578125 0.15625 -1.3125 0.15625q-0.734375 0 -1.453125 -0.15625l-0.21875 -2.0q0.59375 0.125 1.078125 0.125q0.890625 0 1.3125 -0.53125q0.4375 -0.515625 0.671875 -1.328125l-3.6875 -9.703125z" fill-rule="nonzero"/><path fill="#000000" fill-opacity="0.0" d="m716.0315 215.99213l118.01575 0l0 42.015747l-118.01575 0z" fill-rule="evenodd"/><path fill="#000000" d="m725.70337 238.56837l2.625 -0.25q0.234375 1.3125 0.953125 1.9375q0.734375 0.609375 1.96875 0.609375q1.296875 0 1.953125 -0.546875q0.671875 -0.546875 0.671875 -1.28125q0 -0.484375 -0.28125 -0.8125q-0.28125 -0.328125 -0.96875 -0.578125q-0.484375 -0.15625 -2.171875 -0.578125q-2.15625 -0.546875 -3.03125 -1.328125q-1.234375 -1.09375 -1.234375 -2.6875q0 -1.015625 0.578125 -1.90625q0.578125 -0.890625 1.65625 -1.34375q1.09375 -0.46875 2.640625 -0.46875q2.515625 0 3.78125 1.109375q1.28125 1.09375 1.34375 2.9375l-2.703125 0.109375q-0.171875 -1.03125 -0.75 -1.46875q-0.5625 -0.453125 -1.703125 -0.453125q-1.171875 0 -1.84375 0.46875q-0.421875 0.3125 -0.421875 0.84375q0 0.46875 0.40625 0.796875q0.5 0.4375 2.46875 0.90625q1.96875 0.453125 2.90625 0.953125q0.953125 0.5 1.484375 1.359375q0.53125 0.859375 0.53125 2.125q0 1.15625 -0.640625 2.15625q-0.640625 1.0 -1.8125 1.484375q-1.15625 0.484375 -2.890625 0.484375q-2.53125 0 -3.890625 -1.171875q-1.359375 -1.171875 -1.625 -3.40625zm17.552979 -5.328125l0 2.03125l-1.75 0l0 3.90625q0 1.1875 0.046875 1.390625q0.046875 0.1875 0.21875 0.3125q0.1875 0.125 0.4375 0.125q0.359375 0 1.03125 -0.25l0.21875 2.0q-0.890625 0.375 -2.015625 0.375q-0.703125 0 -1.265625 -0.234375q-0.546875 -0.234375 -0.8125 -0.59375q-0.25 -0.375 -0.34375 -1.0q-0.09375 -0.453125 -0.09375 -1.8125l0 -4.21875l-1.171875 0l0 -2.03125l1.171875 0l0 -1.921875l2.578125 -1.5l0 3.421875l1.75 0zm1.1813965 4.703125q0 -1.28125 0.625 -2.46875q0.625 -1.203125 1.78125 -1.828125q1.15625 -0.625 2.578125 -0.625q2.1875 0 3.59375 1.421875q1.40625 1.421875 1.40625 3.609375q0 2.1875 -1.421875 3.640625q-1.421875 1.4375 -3.5625 1.4375q-1.328125 0 -2.546875 -0.59375q-1.203125 -0.609375 -1.828125 -1.765625q-0.625 -1.171875 -0.625 -2.828125zm2.625 0.125q0 1.453125 0.671875 2.21875q0.6875 0.75 1.6875 0.75q1.0 0 1.671875 -0.75q0.6875 -0.765625 0.6875 -2.234375q0 -1.421875 -0.6875 -2.1875q-0.671875 -0.765625 -1.671875 -0.765625q-1.0 0 -1.6875 0.765625q-0.671875 0.765625 -0.671875 2.203125zm11.817871 4.84375l-2.5625 0l0 -9.671875l2.375 0l0 1.375q0.609375 -0.984375 1.09375 -1.28125q0.484375 -0.3125 1.109375 -0.3125q0.875 0 1.6875 0.484375l-0.796875 2.234375q-0.640625 -0.421875 -1.203125 -0.421875q-0.53125 0 -0.90625 0.296875q-0.375 0.296875 -0.59375 1.078125q-0.203125 0.765625 -0.203125 3.234375l0 2.984375zm10.400879 -3.078125l2.546875 0.421875q-0.484375 1.40625 -1.546875 2.140625q-1.0625 0.734375 -2.65625 0.734375q-2.515625 0 -3.734375 -1.65625q-0.953125 -1.3125 -0.953125 -3.328125q0 -2.40625 1.25 -3.765625q1.265625 -1.359375 3.1875 -1.359375q2.15625 0 3.40625 1.421875q1.25 1.421875 1.1875 4.375l-6.40625 0q0.03125 1.140625 0.609375 1.78125q0.59375 0.625 1.484375 0.625q0.59375 0 1.0 -0.328125q0.421875 -0.328125 0.625 -1.0625zm0.15625 -2.59375q-0.03125 -1.109375 -0.578125 -1.6875q-0.546875 -0.578125 -1.328125 -0.578125q-0.84375 0 -1.390625 0.609375q-0.546875 0.609375 -0.53125 1.65625l3.828125 0z" fill-rule="nonzero"/><path fill="#000000" fill-opacity="0.0" d="m57.984253 215.99213l118.01575 0l0 42.015747l-118.01575 0z" fill-rule="evenodd"/><path fill="#000000" d="m68.34363 242.91212l0 -13.359375l9.90625 0l0 2.265625l-7.21875 0l0 2.953125l6.71875 0l0 2.25l-6.71875 0l0 3.640625l7.46875 0l0 2.25l-10.15625 0zm21.224823 0l-2.5625 0l0 -4.9375q0 -1.5625 -0.171875 -2.015625q-0.15625 -0.46875 -0.53125 -0.71875q-0.359375 -0.265625 -0.875 -0.265625q-0.671875 0 -1.203125 0.375q-0.53125 0.359375 -0.734375 0.96875q-0.1875 0.59375 -0.1875 2.21875l0 4.375l-2.546875 0l0 -9.671875l2.375 0l0 1.421875q1.265625 -1.640625 3.1875 -1.640625q0.84375 0 1.546875 0.3125q0.703125 0.296875 1.0625 0.78125q0.359375 0.46875 0.5 1.078125q0.140625 0.59375 0.140625 1.703125l0 6.015625zm7.036606 -9.671875l0 2.03125l-1.75 0l0 3.90625q0 1.1875 0.046875 1.390625q0.046875 0.1875 0.21875 0.3125q0.1875 0.125 0.4375 0.125q0.359375 0 1.03125 -0.25l0.21875 2.0q-0.890625 0.375 -2.015625 0.375q-0.703125 0 -1.265625 -0.234375q-0.546875 -0.234375 -0.8125 -0.59375q-0.25 -0.375 -0.34375 -1.0q-0.09375 -0.453125 -0.09375 -1.8125l0 -4.21875l-1.171875 0l0 -2.03125l1.171875 0l0 -1.921875l2.578125 -1.5l0 3.421875l1.75 0zm1.775177 -1.3125l0 -2.375l2.5625 0l0 2.375l-2.5625 0zm0 10.984375l0 -9.671875l2.5625 0l0 9.671875l-2.5625 0zm9.620804 -9.671875l0 2.03125l-1.75 0l0 3.90625q0 1.1875 0.046875 1.390625q0.046875 0.1875 0.21875 0.3125q0.1875 0.125 0.4375 0.125q0.359375 0 1.03125 -0.25l0.21875 2.0q-0.890625 0.375 -2.015625 0.375q-0.703125 0 -1.265625 -0.234375q-0.546875 -0.234375 -0.8125 -0.59375q-0.25 -0.375 -0.34375 -1.0q-0.09375 -0.453125 -0.09375 -1.8125l0 -4.21875l-1.171875 0l0 -2.03125l1.171875 0l0 -1.921875l2.578125 -1.5l0 3.421875l1.75 0zm0.556427 0l2.71875 0l2.328125 6.859375l2.25 -6.859375l2.65625 0l-3.421875 9.3125l-0.609375 1.6875q-0.328125 0.84375 -0.640625 1.28125q-0.3125 0.453125 -0.703125 0.71875q-0.390625 0.28125 -0.96875 0.4375q-0.578125 0.15625 -1.3125 0.15625q-0.734375 0 -1.453125 -0.15625l-0.21875 -2.0q0.59375 0.125 1.078125 0.125q0.890625 0 1.3125 -0.53125q0.4375 -0.515625 0.671875 -1.328125l-3.6875 -9.703125z" fill-rule="nonzero"/><path fill="#000000" fill-opacity="0.0" d="m773.0 412.0l26.015747 -44.0" fill-rule="evenodd"/><path stroke="#ff0000" stroke-width="4.0" stroke-linejoin="round" stroke-linecap="butt" d="m773.0 412.0l13.800781 -23.341003" fill-rule="evenodd"/><path fill="#ff0000" stroke="#ff0000" stroke-width="4.0" stroke-linecap="butt" d="m792.488 392.02164l3.5515747 -18.988068l-14.925964 12.262787z" fill-rule="evenodd"/><path fill="#000000" fill-opacity="0.0" d="m453.62204 420.0l430.80313 0l0 59.77954l-430.80313 0z" fill-rule="evenodd"/><path fill="#ff0000" d="m473.20016 460.34375q-4.3125 0 -6.078125 -1.765625q-1.765625 -1.765625 -1.765625 -4.640625q0 -1.53125 0.6875 -4.15625l4.421875 0.578125q-0.875 2.765625 -0.875 3.578125q0 0.890625 0.578125 1.46875q0.71875 0.703125 3.171875 0.703125l14.875 0l0 4.234375l-15.015625 0zm-5.890625 -23.375l18.296875 0l0 4.25l-18.296875 0l0 -4.25zm37.980225 16.578125q-1.421875 3.609375 -2.78125 5.25q-2.03125 2.46875 -4.171875 2.46875q-3.71875 0 -5.46875 -4.203125q-0.953125 -2.34375 -0.953125 -9.765625q0 -5.234375 0.59375 -11.40625l3.5 0.84375q3.125 0.78125 0.625 2.375q-0.484375 4.4375 -0.484375 8.3125q0 5.25 0.625 7.34375q0.515625 1.734375 1.296875 1.734375q1.015625 0 1.859375 -1.703125q0.640625 -1.265625 1.578125 -3.890625l3.78125 2.640625zm6.9687805 -15.828125q6.375 6.65625 7.796875 16.203125l-4.828125 1.265625q-1.65625 -9.65625 -6.9375305 -15.203125l3.9687805 -2.265625zm19.286743 18.015625q10.375 -0.140625 13.296875 -3.0625q1.75 -1.75 1.75 -4.34375q0 -2.703125 -1.875 -4.578125q-1.359375 -1.359375 -4.984375 -1.359375q-3.125 0 -7.46875 1.53125q-3.34375 1.140625 -8.0 3.25l-2.0 -4.75l8.03125 -2.296875q6.484375 -1.84375 9.828125 -1.84375q5.484375 0 8.15625 2.671875q2.6875 2.671875 2.6875 7.125q0 4.703125 -2.546875 7.25q-4.640625 4.625 -15.734375 4.765625l-1.140625 -4.359375zm46.26587 -11.4375q0.234375 4.296875 0 8.78125q3.515625 1.28125 7.75 4.3125l-2.296875 3.65625q-3.28125 -2.484375 -5.484375 -3.546875q0 1.53125 -1.640625 3.171875q-1.765625 1.765625 -5.03125 1.765625q-3.28125 0 -5.046875 -1.765625q-1.5 -1.515625 -1.5 -3.875q0 -2.109375 1.25 -3.34375q1.765625 -1.765625 5.15625 -1.765625q1.78125 0 2.75 0.21875q0.21875 -3.578125 0 -7.390625l-9.671875 0.640625l0 -4.109375l9.34375 -0.515625q-0.109375 -2.9375 -0.59375 -6.546875l3.578125 0q3.1875 0.5625 0.90625 2.078125q0.109375 2.34375 0.203125 4.265625l7.0625 -0.40625l0 4.125l-6.734375 0.25zm-20.953125 17.59375q-0.625 -4.390625 -0.625 -9.265625q0 -10.609375 1.734375 -17.71875l3.578125 0.671875q2.328125 1.0 0.234375 2.046875q-1.3125 4.1875 -1.3125 15.0q0 4.875 0.796875 8.515625l-4.40625 0.75zm16.84375 -6.0q-1.65625 -0.484375 -2.734375 -0.484375q-1.53125 0 -2.109375 0.578125q-0.453125 0.453125 -0.453125 0.8125q0 0.75 0.328125 1.078125q0.703125 0.703125 2.234375 0.703125q1.515625 0 2.09375 -0.671875q0.71875 -0.828125 0.640625 -2.015625zm31.28125 -19.953125l12.375 0l0 8.140625l-3.984375 0l0 -4.296875l-20.625 0l0 4.296875l-3.96875 0l0 -8.140625l11.84375 0l0 -3.125l3.609375 0q3.015625 0.578125 0.75 2.09375l0 1.03125zm-11.90625 5.71875l19.71875 0l0 3.84375l-19.71875 0l0 -3.84375zm-4.953125 5.859375l29.75 0l0 3.84375l-9.5 0l0 7.390625q0 0.359375 0.21875 0.359375l4.4375 0q0.671875 0 0.734375 -0.703125l0.359375 -2.953125l4.40625 0.9375l-0.796875 3.9375q-0.625 3.015625 -4.1875 3.015625l-6.515625 0q-3.03125 0 -3.03125 -2.90625l0 -9.078125l-2.78125 0l0 1.40625q0 8.75 -11.953125 11.34375l-1.5 -4.34375q9.078125 -1.46875 9.078125 -7.140625l0 -1.265625l-8.71875 0l0 -3.84375zm47.859375 -9.640625q-3.328125 4.71875 -5.21875 6.0l11.453125 0q-2.03125 -1.109375 -6.234375 -6.0zm-9.328125 8.65625q-0.796875 0.453125 -3.921875 2.09375l-1.90625 -4.03125q9.28125 -3.953125 13.546875 -12.234375l3.421875 0.46875q3.328125 1.25 0.109375 1.921875l0.109375 -0.25q5.484375 6.609375 14.109375 9.25l-1.875 4.125q-2.21875 -0.734375 -4.125 -1.859375l0 1.703125l-7.671875 0l0 3.046875l8.453125 0l0 3.859375l-8.453125 0l0 3.703125l11.96875 0l0 3.84375l-27.921875 0l0 -3.84375l11.96875 0l0 -3.703125l-8.453125 0l0 -3.859375l8.453125 0l0 -3.046875l-7.8125 0l0 -1.1875zm48.734375 12.90625q-6.40625 0 -11.078125 -4.53125l2.53125 -3.3125q3.859375 3.734375 8.53125 3.609375l7.859375 0l0 4.234375l-7.84375 0zm-19.265625 2.53125q-0.4375 -7.5 -0.4375 -12.328125q0 -5.921875 1.578125 -14.78125l3.296875 0.828125q3.015625 0.5625 0.609375 2.25q-1.234375 7.203125 -1.234375 11.703125q0 5.046875 0.5625 11.953125l-4.375 0.375zm25.421875 -19.3125q-6.265625 -0.140625 -15.953125 0.84375l0 -4.125q10.015625 -0.96875 15.953125 -0.828125l0 4.109375zm9.906555 -0.828125q-2.328125 -2.484375 -5.09375 -4.4375l2.8125 -3.359375q2.9375 1.796875 5.078125 4.265625l-2.796875 3.53125zm14.828125 -5.640625l9.625 0l0 3.859375l-11.234375 0l-2.109375 3.5l4.515625 -0.234375l-2.171875 -1.671875l3.265625 -2.046875q4.75 2.734375 8.296875 6.734375l-3.25 2.671875l-2.296875 -2.3125l-14.625 1.109375q-0.265625 1.75 -1.859375 0.109375l-1.21875 -4.0l4.890625 -0.15625l1.71875 -3.703125l-6.375 0l0 -3.859375l8.453125 0l0 -3.515625l3.609375 0q3.015625 0.609375 0.765625 2.109375l0 1.40625zm-20.984375 24.65625q3.0 -4.875 5.390625 -10.953125l3.5 2.328125q-2.296875 6.5625 -4.375 10.015625q0.515625 1.609375 -1.453125 1.1875l-3.0625 -2.578125zm5.984375 -11.515625q-2.515625 -2.015625 -5.390625 -4.078125l2.4375 -3.5625q3.34375 2.046875 5.5625 3.921875l-2.609375 3.71875zm14.609375 12.578125l-3.984375 0l0 -13.734375l3.203125 0q2.828125 0.34375 0.78125 1.8125l0 11.921875zm1.75 -14.0l3.203125 0q2.84375 0.34375 0.765625 1.828125l0 9.40625q0 0.359375 0.234375 0.359375l0.78125 0q0.046875 0 0.09375 -0.328125l0.34375 -2.84375l3.9375 0.984375q-0.171875 2.328125 -0.578125 3.953125q-0.53125 2.078125 -2.625 2.078125l-3.390625 0q-2.765625 0 -2.765625 -2.90625l0 -12.53125zm-7.609375 6.9375q0 5.890625 -6.71875 9.328125l-2.734375 -3.296875q5.46875 -2.8125 5.46875 -6.546875l0 -6.296875l3.21875 0q2.8125 0.375 0.765625 1.828125l0 4.984375zm44.0625 -1.921875l-7.09375 0l0 9.90625l-3.96875 0l0 -9.90625l-6.46875 0q-0.25 6.375 -4.6875 11.109375l-3.046875 -3.03125q3.78125 -4.203125 3.78125 -9.15625l0 -17.34375l25.453125 0l0 25.546875q0 2.78125 -2.765625 2.78125l-4.1875 0l-0.96875 -4.25l4.109375 0q0.015625 0.171875 -0.15625 0.171875l0 -5.828125zm-17.5 -7.28125l0 3.4375l6.4375 0l0 -3.4375l-6.4375 0zm0 -7.296875l0 3.453125l6.4375 0l0 -3.453125l-6.4375 0zm10.40625 7.296875l0 3.4375l7.09375 0l0 -3.4375l-7.09375 0zm0 -7.296875l0 3.453125l7.09375 0l0 -3.453125l-7.09375 0zm43.09375 2.21875q-5.265625 0 -7.75 0.859375q-2.71875 1.0 -5.078125 3.359375q-2.265625 2.265625 -2.265625 5.890625q0 2.84375 1.75 4.59375q2.40625 2.421875 10.5 2.703125l-1.546875 4.234375q-8.4375 -0.4375 -11.625 -3.625q-3.1875 -3.1875 -3.1875 -7.765625q0 -6.46875 2.828125 -8.546875q-3.359375 0.515625 -10.34375 1.5l-1.140625 -4.390625q13.5625 -0.96875 27.078125 -3.296875l0.78125 4.484375zm-3.578125 10.40625q-3.34375 -2.453125 -6.109375 -4.015625l2.203125 -2.640625q2.484375 1.484375 6.125 4.015625l-2.21875 2.640625zm2.625 -3.140625q-3.625 -2.5625 -6.140625 -4.0l2.21875 -2.609375q2.34375 1.328125 6.09375 4.0l-2.171875 2.609375zm18.4953 -6.21875q0.234375 0.703125 0.984375 1.9375q3.671875 -0.578125 8.25 -1.890625l1.734375 4.03125q-4.203125 0.96875 -7.640625 1.46875q1.1875 1.609375 4.875 4.359375l-3.046875 3.03125q-4.96875 -1.09375 -7.625 -1.09375q-4.9375 0 -6.296875 1.359375q-0.703125 0.703125 -0.703125 1.46875q0 1.015625 0.578125 1.59375q0.84375 0.84375 5.375 0.84375l8.765625 0l-0.765625 4.234375l-8.515625 0q-5.5 0 -7.78125 -2.28125q-1.765625 -1.765625 -1.765625 -4.53125q0 -2.234375 1.640625 -3.859375q2.40625 -2.421875 9.59375 -2.421875q2.40625 0 2.796875 0.0625q-0.453125 -0.484375 -1.65625 -2.03125q-5.78125 0.734375 -13.71875 0.734375l-0.59375 -4.125q7.40625 0.15625 12.203125 -0.375q-0.453125 -0.859375 -0.8125 -1.953125q-4.3125 0.34375 -10.171875 0.34375l-0.40625 -4.0q6.09375 0.15625 9.515625 -0.15625q-0.4375 -1.59375 -0.9375 -5.421875l3.71875 0q2.984375 0.609375 0.796875 2.0625q0.203125 1.515625 0.46875 2.828125q2.703125 -0.3125 6.78125 -1.390625l1.390625 3.96875q-5.234375 0.921875 -7.03125 1.203125zm30.63623 17.28125q1.203125 -0.140625 2.46875 -1.40625q1.359375 -1.359375 1.359375 -3.6875q0 -2.578125 -1.5 -4.0625q-1.484375 -1.5 -4.84375 -1.5q-4.078125 0 -6.234375 1.578125q-2.15625 1.515625 -6.078125 6.0l-3.265625 -2.890625q9.859375 -9.859375 13.640625 -14.765625q-2.671875 0.328125 -7.546875 0.765625l-1.328125 -4.421875q7.25 0 12.046875 -0.640625l1.515625 -0.65625l1.75 1.75q2.46875 2.21875 -0.765625 2.8125q-3.734375 4.25 -6.140625 6.90625q0.640625 -0.15625 2.53125 -0.15625q5.234375 0 7.78125 2.546875q2.546875 2.546875 2.546875 6.484375q0 4.046875 -2.296875 6.34375q-3.328125 3.328125 -8.421875 3.328125q-4.828125 0 -7.125 -2.296875q-1.890625 -1.890625 -1.890625 -4.515625q0 -1.84375 1.375 -3.21875q1.5 -1.5 3.484375 -1.5q2.625 0 4.390625 1.765625q1.96875 1.96875 2.546875 5.4375zm-3.8125 0.578125q-0.40625 -2.484375 -1.40625 -3.484375q-0.703125 -0.71875 -1.328125 -0.71875q-0.75 0 -1.078125 0.328125q-0.453125 0.453125 -0.453125 0.9375q0 0.890625 0.84375 1.734375q1.09375 1.09375 2.890625 1.09375q0.53125 0 0.53125 0.109375z" fill-rule="nonzero"/></g></svg>